<?xml version="1.0" encoding="UTF-8" standalone="no"?>
<!-- Created with Inkscape (http://www.inkscape.org/) -->

<svg
   xmlns:dc="http://purl.org/dc/elements/1.1/"
   xmlns:cc="http://creativecommons.org/ns#"
   xmlns:rdf="http://www.w3.org/1999/02/22-rdf-syntax-ns#"
   xmlns:svg="http://www.w3.org/2000/svg"
   xmlns="http://www.w3.org/2000/svg"
   xmlns:sodipodi="http://sodipodi.sourceforge.net/DTD/sodipodi-0.dtd"
   xmlns:inkscape="http://www.inkscape.org/namespaces/inkscape"
   width="400.57129"
   height="397.32144"
   id="svg2"
   version="1.1"
   inkscape:version="0.48.4 r9939"
   sodipodi:docname="gain-of-learning-tools.svg">
  <defs
     id="defs4">
    <marker
       inkscape:stockid="Arrow1Mend"
       orient="auto"
       refY="0"
       refX="0"
       id="Arrow1Mend"
       style="overflow:visible">
      <path
         id="path3768"
         d="M 0,0 5,-5 -12.5,0 5,5 0,0 z"
         style="fill-rule:evenodd;stroke:#000000;stroke-width:1pt"
         transform="matrix(-0.4,0,0,-0.4,-4,0)"
         inkscape:connector-curvature="0" />
    </marker>
    <marker
       inkscape:stockid="Arrow1Mend"
       orient="auto"
       refY="0"
       refX="0"
       id="Arrow1Mend-7"
       style="overflow:visible">
      <path
         inkscape:connector-curvature="0"
         id="path3768-7"
         d="M 0,0 5,-5 -12.5,0 5,5 0,0 z"
         style="fill-rule:evenodd;stroke:#000000;stroke-width:1pt"
         transform="matrix(-0.4,0,0,-0.4,-4,0)" />
    </marker>
  </defs>
  <sodipodi:namedview
     id="base"
     pagecolor="#ffffff"
     bordercolor="#666666"
     borderopacity="1.0"
     inkscape:pageopacity="0.0"
     inkscape:pageshadow="2"
     inkscape:zoom="0.7"
     inkscape:cx="-81.28162"
     inkscape:cy="-26.38183"
     inkscape:document-units="px"
     inkscape:current-layer="layer1"
     showgrid="false"
     inkscape:window-width="1600"
     inkscape:window-height="850"
     inkscape:window-x="0"
     inkscape:window-y="0"
     inkscape:window-maximized="1"
     fit-margin-top="0"
     fit-margin-left="0"
     fit-margin-right="0"
     fit-margin-bottom="0" />
  <metadata
     id="metadata7">
    <rdf:RDF>
      <cc:Work
         rdf:about="">
        <dc:format>image/svg+xml</dc:format>
        <dc:type
           rdf:resource="http://purl.org/dc/dcmitype/StillImage" />
        <dc:title></dc:title>
      </cc:Work>
    </rdf:RDF>
  </metadata>
  <g
     inkscape:label="Layer 1"
     inkscape:groupmode="layer"
     id="layer1"
     transform="translate(-32.76786,-43.255035)">
    <path
       style="fill:none;stroke:#000000;stroke-width:5;stroke-linecap:butt;stroke-linejoin:miter;stroke-miterlimit:4;stroke-opacity:1;stroke-dasharray:none;marker-end:url(#Arrow1Mend)"
       d="m 71.428575,438.07647 0,-388.571435"
       id="path2985"
       inkscape:connector-curvature="0" />
    <path
       style="fill:none;stroke:#000000;stroke-width:5;stroke-linecap:butt;stroke-linejoin:miter;stroke-miterlimit:4;stroke-opacity:1;stroke-dasharray:none;marker-end:url(#Arrow1Mend)"
       d="m 35.26786,405.9158 388.57143,0"
       id="path2985-9"
       inkscape:connector-curvature="0" />
    <text
       xml:space="preserve"
       style="font-size:30px;font-style:normal;font-weight:normal;line-height:125%;letter-spacing:0px;word-spacing:0px;fill:#000000;fill-opacity:1;stroke:none;font-family:Sans"
       x="100"
       y="88.076469"
       id="text4225"
       sodipodi:linespacing="125%"><tspan
         sodipodi:role="line"
         id="tspan4227"
         x="100"
         y="88.076469">gain</tspan></text>
    <text
       xml:space="preserve"
       style="font-size:30px;font-style:normal;font-weight:normal;line-height:125%;letter-spacing:0px;word-spacing:0px;fill:#000000;fill-opacity:1;stroke:none;font-family:Sans"
       x="367.14285"
       y="376.64789"
       id="text4225-4"
       sodipodi:linespacing="125%"><tspan
         sodipodi:role="line"
         id="tspan4227-0"
         x="367.14285"
         y="376.64789">time</tspan></text>
    <path
       style="color:#808080;fill:#000000;fill-opacity:0.74038463;fill-rule:nonzero;stroke:none;stroke-width:5;marker:none;visibility:visible;display:inline;overflow:visible;enable-background:accumulate"
       id="path4261"
       d="m 84.046518,396.13961 c 4.267098,-0.31911 8.438339,-1.14377 12.639094,-1.91046 2.603005,0.0955 4.685508,-1.65003 7.057788,-2.27276 1.66329,-0.0775 2.87481,-1.06281 4.30774,-1.7959 -30.48027,18.49554 -17.942881,11.92612 -12.376793,5.02778 2.799849,-3.56758 4.637743,-7.75943 6.499503,-11.86197 1.79416,-3.5209 2.53383,-7.4292 3.89673,-11.1011 7.40829,-10.26125 18.27241,-12.5733 29.21697,-13.04575 4.00087,-0.13706 8.00451,-0.19373 12.00763,-0.19712 3.49685,0.0312 6.9935,0.0479 10.49047,0.0583 2.46442,-0.0227 4.92894,-0.0389 7.3933,-0.0668 1.51976,-0.005 3.03939,-0.0115 4.55914,9.5e-4 1.86863,0.002 3.73721,0.007 5.60585,0.009 1.71505,-0.0205 3.4302,-0.002 5.14527,-0.01 0.99231,-0.2447 2.27578,0.32816 3.2402,-0.006 0.19118,-0.0662 0.62512,-0.50738 0.44796,-0.40963 -5.9251,3.2693 -11.8041,6.62148 -17.70615,9.93221 6.81813,-4.86982 13.05382,-7.80308 21.35795,-12.60632 0.52989,-0.30649 2.11686,-1.23056 1.58648,-0.92493 -16.60179,9.56678 -21.94718,12.81718 -15.02234,8.62462 3.70494,-2.3881 7.40156,-4.78613 11.15855,-7.09237 8.27128,-2.43458 16.60523,-12.46025 26.42798,-13.21795 2.37104,0.30604 4.50356,-0.6245 6.75767,-1.11302 0.30683,-0.21972 0.58567,-0.48505 0.92049,-0.65916 1.12056,-0.5827 1.80635,-0.57548 2.98424,-1.06368 1.41481,-0.58638 2.83239,-1.35582 4.1697,-2.10133 -31.6914,19.79061 -14.74986,8.60784 -8.08369,2.85168 2.20841,-1.77825 4.15824,-3.78656 6.06379,-5.87131 7.02038,-5.29426 15.33076,-9.15851 22.81968,-13.3783 2.45087,0.0413 4.64871,-0.11656 7.03033,-0.67816 2.49338,-0.53879 4.58416,-2.03599 6.95006,-2.96826 1.6182,-0.90543 3.40414,-1.48527 5.06257,-2.29443 0.65099,-0.31763 2.5258,-1.41949 1.89747,-1.05909 -16.50571,9.46737 -19.95797,11.93031 -12.27966,6.70076 4.725,-3.43294 8.88667,-7.54033 13.32083,-11.3227 5.01758,-3.78739 9.97093,-7.61527 14.76087,-11.69378 3.1612,-2.58698 5.90548,-5.62814 8.52551,-8.74878 1.50698,-2.33995 3.50213,-4.21632 5.4587,-6.15903 2.30216,-2.53555 4.47888,-5.20075 6.43972,-8.01047 2.68059,-3.83191 5.28551,-7.72014 7.61308,-11.77777 2.54388,-4.44139 5.39483,-8.70407 8.58228,-12.70784 4.4165,-4.65703 6.91563,-10.559 9.57344,-16.30379 2.52115,-5.39544 4.27572,-11.07178 6.92489,-16.40284 3.44687,-6.36921 6.76212,-12.8156 9.60388,-19.47963 1.81494,-4.46835 3.54913,-8.96459 5.25497,-13.47626 1.97696,-5.54118 3.97887,-11.04932 5.41489,-16.75733 1.522,-6.02029 2.87615,-12.08601 3.78904,-18.2302 2.48014,-9.07614 5.477,-17.98589 7.89278,-27.08343 3.36606,-10.79395 5.75977,-21.82282 7.81138,-32.929485 1.09338,-4.891705 1.28279,-9.908532 1.92898,-14.856788 0.18812,-1.092966 0.61419,-2.118306 0.92881,-3.174794 1.30698,-7.404669 -1.1886,6.51641 18.84447,-11.48125 4.88989,-4.393068 -11.36006,6.619559 -17.11254,9.8006 -0.4426,0.244747 0.77652,-0.648274 1.15938,-0.978732 1.27912,-1.104032 0.94365,-0.807916 2.07107,-1.953156 1.29639,-1.014779 1.80173,-2.474386 2.57586,-3.824703 0.1233,-0.08031 0.2466,-0.160615 0.3699,-0.240922 0,0 19.58429,-8.430773 19.58429,-8.430773 l 0,0 c -0.0774,0.185193 -0.15482,0.370386 -0.23223,0.555579 -1.73077,0.761606 -1.28246,2.557702 -2.79908,3.787343 -0.31246,0.351049 -1.69552,1.916733 -1.99551,2.202497 -6.1731,5.880343 -43.63314,25.380636 -2.9166,1.880195 -0.75169,0.671749 -0.97801,1.810789 -1.38814,2.68092 -0.57054,1.578278 -0.64066,3.217524 -0.87779,4.878186 -0.49009,3.432153 -1.07849,6.848609 -1.78282,10.243822 -2.29017,11.123451 -4.58463,22.254241 -7.92322,33.122961 -2.27541,8.90325 -5.04419,17.65364 -7.29239,26.56242 -1.01126,6.24028 -2.65983,12.35311 -4.04702,18.5159 -0.44275,2.18107 -0.73302,4.40065 -1.35275,6.53817 -1.0246,3.53395 -3.05044,6.78916 -3.82957,10.41755 -1.67835,4.52794 -3.12622,9.1356 -5.10125,13.53683 -3.02241,6.63283 -6.34658,13.12244 -9.65557,19.61586 -2.71009,5.35118 -4.59932,11.0429 -7.19458,16.45341 -1.95614,4.23171 -3.85069,9.67454 -6.35263,13.5386 -0.73977,1.14254 -1.92747,1.95269 -2.63547,3.11899 -3.37585,3.73546 -6.1281,7.97437 -8.64786,12.32509 -2.33888,4.03016 -4.93312,7.89398 -7.36226,11.86457 -2.01107,2.88553 -4.2045,5.62274 -6.45649,8.31978 -1.75554,2.12031 -4.00987,3.73464 -5.54481,6.03984 -2.51755,3.32912 -5.37285,6.4881 -8.5471,9.19686 -2.38299,2.02266 -4.72692,4.12892 -7.15395,6.09545 -3.65821,2.96411 -1.63654,1.09591 -5.32593,3.79246 -0.76536,0.55939 -1.48032,1.18466 -2.22047,1.77699 -4.49674,3.83989 -8.8408,7.85266 -13.44997,11.56033 -9.31045,7.06712 -19.72936,12.58297 -30.39779,17.30665 -2.36957,1.14418 -4.67563,2.39964 -7.33362,2.68904 -2.28484,0.37577 -4.73831,0.0919 -6.87483,1.07629 31.98845,-18.3813 20.27011,-11.96757 13.55569,-7.6551 -1.77297,0.91359 -3.13697,3.11566 -4.77432,4.48776 -0.5217,0.43718 -1.03751,0.88135 -1.55626,1.32202 -8.13869,7.77456 -17.58961,13.13166 -27.77352,18.26776 -2.7726,1.29824 -5.60594,2.53167 -8.49773,3.5118 -2.24767,0.58417 -4.52786,0.69944 -6.82894,0.93202 -7.50924,1.6707 -20.1343,11.45584 10.06341,-7.00618 -3.78844,2.16494 -7.41601,4.592 -11.06387,6.98211 -7.66964,5.13866 -1.08543,0.77326 -20.95122,12.24247 -0.54501,0.31465 -2.18445,1.25088 -1.64069,0.93408 5.53894,-3.22704 11.09705,-6.42121 16.62629,-9.66484 0.63469,-0.37232 -2.54259,1.15489 -1.76162,1.33038 -19.566,11.06799 -12.38658,10.73194 -22.99647,10.67183 -1.70599,-0.008 -3.41207,0.0107 -5.11805,-0.01 -1.87731,0.002 -3.75457,0.007 -5.63187,0.01 -1.52097,0.0123 -3.04182,0.007 -4.5628,10e-4 -2.40022,-0.0288 -4.80058,-0.0471 -7.20081,-0.0762 -3.52537,7.9e-4 -7.05071,0.004 -10.57606,1.3e-4 -3.91493,-0.0256 -7.83288,-0.065 -11.74324,0.16944 -2.30814,0.18185 -4.66338,0.30446 -6.90442,0.946 -0.57852,0.16561 -2.20473,0.94391 -1.69238,0.62832 14.81777,-9.12735 22.78706,-12.46461 15.6221,-9.41408 -0.24689,0.20338 -0.57551,0.33622 -0.74069,0.61016 -0.23128,0.38359 -0.2641,0.85604 -0.40061,1.28265 -0.97719,3.05381 -2.00882,6.09606 -3.25941,9.05027 -1.80136,4.16456 -3.49482,8.43193 -6.03567,12.21608 -6.35922,8.46742 -11.5508,10.94259 -23.549184,16.55763 -1.452824,0.76312 -3.016856,1.05479 -4.532657,1.62998 -2.189665,1.07057 -4.660037,1.38858 -7.035533,1.79632 -4.310936,0.77293 -8.639742,1.485 -13.019481,1.72274 0,0 17.129263,-12.44514 17.129263,-12.44514 z"
       inkscape:connector-curvature="0" />
  </g>
</svg>
