<?xml version="1.0" encoding="UTF-8" standalone="no"?>
<!-- Created with Inkscape (http://www.inkscape.org/) -->

<svg
   xmlns:ns0="http://www.iki.fi/pav/software/textext/"
   xmlns:dc="http://purl.org/dc/elements/1.1/"
   xmlns:cc="http://creativecommons.org/ns#"
   xmlns:rdf="http://www.w3.org/1999/02/22-rdf-syntax-ns#"
   xmlns:svg="http://www.w3.org/2000/svg"
   xmlns="http://www.w3.org/2000/svg"
   xmlns:sodipodi="http://sodipodi.sourceforge.net/DTD/sodipodi-0.dtd"
   xmlns:inkscape="http://www.inkscape.org/namespaces/inkscape"
   width="413.56589"
   height="312.92068"
   id="svg4282"
   version="1.1"
   inkscape:version="0.48.4 r9939"
   sodipodi:docname="funky-graph.svg">
  <sodipodi:namedview
     id="base"
     pagecolor="#ffffff"
     bordercolor="#666666"
     borderopacity="1.0"
     inkscape:pageopacity="0.0"
     inkscape:pageshadow="2"
     inkscape:zoom="0.49497475"
     inkscape:cx="53.300818"
     inkscape:cy="258.15933"
     inkscape:document-units="px"
     inkscape:current-layer="layer1"
     showgrid="false"
     inkscape:window-width="794"
     inkscape:window-height="676"
     inkscape:window-x="0"
     inkscape:window-y="0"
     inkscape:window-maximized="0"
     fit-margin-top="0"
     fit-margin-left="0"
     fit-margin-right="0"
     fit-margin-bottom="0" />
  <defs
     id="defs4284" />
  <metadata
     id="metadata4287">
    <rdf:RDF>
      <cc:Work
         rdf:about="">
        <dc:format>image/svg+xml</dc:format>
        <dc:type
           rdf:resource="http://purl.org/dc/dcmitype/StillImage" />
        <dc:title />
      </cc:Work>
    </rdf:RDF>
  </metadata>
  <g
     id="layer1"
     inkscape:groupmode="layer"
     inkscape:label="Layer 1"
     transform="translate(-183.73461,-194.75019)">
    <g
       id="g4957"
       transform="translate(0,20)">
      <path
         transform="translate(128.79445,163.13963)"
         sodipodi:type="arc"
         style="color:#808080;fill:#ececec;fill-opacity:1;fill-rule:nonzero;stroke:#000000;stroke-width:5;stroke-linecap:butt;stroke-linejoin:miter;stroke-miterlimit:4;stroke-opacity:1;stroke-dasharray:none;stroke-dashoffset:0;marker:none;visibility:visible;display:inline;overflow:visible;enable-background:accumulate"
         id="path4295-0"
         sodipodi:cx="248.49753"
         sodipodi:cy="260.40259"
         sodipodi:rx="61.619305"
         sodipodi:ry="61.619305"
         d="m 310.11683,260.40259 c 0,34.0314 -27.5879,61.6193 -61.6193,61.6193 -34.0314,0 -61.61931,-27.5879 -61.61931,-61.6193 0,-34.0314 27.58791,-61.61931 61.61931,-61.61931 34.0314,0 61.6193,27.58791 61.6193,61.61931 z" />
      <g
         style="font-style:normal;font-variant:normal;font-weight:normal;font-stretch:normal;letter-spacing:normal;word-spacing:normal;text-anchor:start;fill:none;stroke:#000000;stroke-width:0.18887597;stroke-linecap:butt;stroke-linejoin:miter;stroke-miterlimit:10.43299961;stroke-opacity:1;stroke-dasharray:none;stroke-dashoffset:0"
         ns0:preamble=""
         ns0:text="$\\frac{\\alpha}{N + \\alpha}$\n"
         word-spacing="normal"
         letter-spacing="normal"
         font-size-adjust="none"
         font-stretch="normal"
         font-weight="normal"
         font-variant="normal"
         font-style="normal"
         stroke-miterlimit="10.433"
         xml:space="preserve"
         transform="matrix(5.1706647,0,0,-5.4212594,-831.63528,4264.4503)"
         id="content"><path
           id="path4935"
           d="m 235.02,712.03 0.06,0.06 0.06,0.06 0.06,0.07 0.05,0.07 0.05,0.06 0.05,0.07 0.04,0.07 0.05,0.07 0.04,0.06 0.04,0.07 0.03,0.07 0.04,0.06 0.03,0.07 0.04,0.06 0.03,0.07 0.02,0.06 0.03,0.06 0.02,0.06 0.03,0.05 0.02,0.06 0.02,0.05 0.01,0.04 0.02,0.05 0.01,0.04 0.01,0.04 0.01,0.04 0.01,0.03 0.01,0.02 0.01,0.03 0,0.02 0,0.01 0,0.01 c 0,0.09 -0.08,0.09 -0.12,0.09 -0.09,0 -0.09,-0.02 -0.14,-0.17 -0.13,-0.46 -0.36,-0.89 -0.65,-1.26 -0.01,0.1 -0.02,0.57 -0.03,0.63 -0.11,0.69 -0.63,1.13 -1.33,1.13 l 0,-0.19 c 0.55,0 0.71,-0.54 0.77,-0.97 0.04,-0.3 0.03,-0.79 0.06,-1.16 h 0 c -0.68,-0.55 -1.27,-0.62 -1.54,-0.62 -0.46,0 -0.71,0.31 -0.71,0.78 0,0.2 0.09,0.96 0.45,1.43 0.33,0.42 0.72,0.54 0.97,0.54 l 0,0.19 c -1.02,0 -2,-0.95 -2,-1.92 0,-0.64 0.46,-1.21 1.27,-1.21 0.64,0 1.22,0.29 1.61,0.59 0.16,-0.51 0.51,-0.59 0.72,-0.59 0.41,0 0.66,0.34 0.66,0.49 0,0.08 -0.08,0.08 -0.12,0.08 -0.09,0 -0.1,-0.03 -0.12,-0.07 -0.1,-0.26 -0.31,-0.31 -0.4,-0.31 -0.09,0 -0.21,0 -0.25,0.86 z"
           inkscape:connector-curvature="0"
           style="fill:#000000;stroke-width:0" /><line
           id="line4937"
           y2="709.62"
           x2="242.98"
           y1="709.62"
           x1="224.63"
           style="stroke-width:0.14664911" /><path
           id="path4939"
           d="m 230.44,707.68 0.01,0.05 0.01,0.05 0.01,0.02 0.01,0.03 0.01,0.02 0.01,0.02 0.01,0.02 0.02,0.02 0.01,0.02 0.01,0.02 0.02,0.02 0.02,0.02 0.01,0.02 0.02,0.02 0.02,0.02 0.03,0.01 0.02,0.02 0.02,0.01 0.03,0.02 0.03,0.01 0.03,0.01 0.03,0.01 0.04,0.01 0.04,0.01 0.03,0.01 0.05,0 0.04,0.01 0.02,0 0.03,0 0.02,0.01 0.02,0 0.03,0 0.03,0 c 0.03,0 0.13,0.01 0.13,0.15 0,0.04 -0.03,0.1 -0.1,0.1 -0.23,0 -0.49,-0.03 -0.72,-0.03 -0.17,0 -0.58,0.03 -0.74,0.03 -0.04,0 -0.14,0 -0.14,-0.15 0,-0.09 0.09,-0.1 0.15,-0.1 0.33,-0.01 0.45,-0.11 0.45,-0.29 0,-0.05 -0.01,-0.09 -0.03,-0.16 l -0.76,-3.03 -1.77,3.61 c -0.05,0.12 -0.07,0.12 -0.24,0.12 h -0.95 c -0.13,0 -0.22,0 -0.22,-0.15 0,-0.1 0.08,-0.1 0.23,-0.1 0.14,0 0.3,-0.01 0.44,-0.04 l -0.93,-3.72 c -0.06,-0.26 -0.18,-0.47 -0.72,-0.49 -0.05,0 -0.15,-0.01 -0.15,-0.15 0,-0.07 0.05,-0.1 0.1,-0.1 0.23,0 0.49,0.03 0.73,0.03 0.16,0 0.57,-0.03 0.74,-0.03 0.06,0 0.14,0.03 0.14,0.15 0,0.09 -0.09,0.1 -0.17,0.1 -0.43,0.01 -0.43,0.2 -0.43,0.29 0,0.03 0,0.06 0.02,0.18 l 0.89,3.56 2.04,-4.16 c 0.06,-0.11 0.08,-0.12 0.15,-0.12 0.11,0 0.11,0.02 0.15,0.15 z"
           inkscape:connector-curvature="0"
           style="fill:#000000;stroke-width:0" /><path
           id="path4941"
           d="m 234.91,705.26 h 2.13 c 0.09,0 0.26,0 0.26,0.17 0,0.17 -0.16,0.17 -0.26,0.17 h -2.13 v 2.14 c 0,0.09 0,0.25 -0.17,0.25 -0.17,0 -0.17,-0.16 -0.17,-0.25 v -2.14 h -2.14 c -0.09,0 -0.26,0 -0.26,-0.17 0,-0.17 0.16,-0.17 0.26,-0.17 h 2.14 v -2.13 c 0,-0.09 0,-0.26 0.17,-0.26 0.17,0 0.17,0.16 0.17,0.26 z"
           inkscape:connector-curvature="0"
           style="fill:#000000;stroke-width:0" /><path
           id="path4943"
           d="m 241.61,704.67 0.06,0.06 0.06,0.07 0.05,0.06 0.05,0.07 0.05,0.06 0.05,0.07 0.05,0.07 0.04,0.07 0.04,0.07 0.04,0.06 0.04,0.07 0.04,0.07 0.03,0.06 0.03,0.07 0.03,0.06 0.03,0.06 0.03,0.06 0.02,0.06 0.02,0.05 0.02,0.06 0.02,0.05 0.02,0.05 0.02,0.04 0.01,0.04 0.01,0.04 0.01,0.04 0.01,0.03 0.01,0.03 0,0.02 0.01,0.02 0,0.01 0,0.01 c 0,0.09 -0.08,0.09 -0.12,0.09 -0.1,0 -0.1,-0.02 -0.15,-0.17 -0.12,-0.46 -0.35,-0.88 -0.64,-1.26 -0.01,0.1 -0.02,0.57 -0.04,0.63 -0.1,0.69 -0.62,1.14 -1.32,1.14 l -0.01,-0.2 c 0.56,0 0.72,-0.53 0.78,-0.97 0.04,-0.29 0.02,-0.79 0.06,-1.16 h 0 c -0.68,-0.55 -1.28,-0.61 -1.54,-0.61 -0.46,0 -0.72,0.3 -0.72,0.77 0,0.2 0.1,0.96 0.46,1.44 0.32,0.41 0.72,0.53 0.96,0.53 l 0.01,0.2 c -1.02,0 -2.01,-0.96 -2.01,-1.93 0,-0.64 0.47,-1.21 1.28,-1.21 0.64,0 1.22,0.29 1.61,0.59 0.16,-0.51 0.51,-0.59 0.72,-0.59 0.4,0 0.66,0.34 0.66,0.49 0,0.08 -0.09,0.08 -0.12,0.08 -0.09,0 -0.11,-0.03 -0.12,-0.07 -0.1,-0.26 -0.31,-0.3 -0.4,-0.3 -0.1,0 -0.21,0 -0.25,0.85 z"
           inkscape:connector-curvature="0"
           style="fill:#000000;stroke-width:0" /></g>    </g>
    <g
       id="g5093">
      <path
         transform="translate(-0.64038631,-0.80670503)"
         sodipodi:type="arc"
         style="color:#808080;fill:#ececec;fill-opacity:1;fill-rule:nonzero;stroke:#000000;stroke-width:5;stroke-linecap:butt;stroke-linejoin:miter;stroke-miterlimit:4;stroke-opacity:1;stroke-dasharray:none;stroke-dashoffset:0;marker:none;visibility:visible;display:inline;overflow:visible;enable-background:accumulate"
         id="path4295"
         sodipodi:cx="248.49753"
         sodipodi:cy="260.40259"
         sodipodi:rx="61.619305"
         sodipodi:ry="61.619305"
         d="m 310.11683,260.40259 c 0,34.0314 -27.5879,61.6193 -61.6193,61.6193 -34.0314,0 -61.61931,-27.5879 -61.61931,-61.6193 0,-34.0314 27.58791,-61.61931 61.61931,-61.61931 34.0314,0 61.6193,27.58791 61.6193,61.61931 z" />
      <g
         id="g5014"
         transform="matrix(5.1706647,0,0,-5.4212594,-961.07012,4101.1274)"
         xml:space="preserve"
         stroke-miterlimit="10.433"
         font-style="normal"
         font-variant="normal"
         font-weight="normal"
         font-stretch="normal"
         font-size-adjust="none"
         letter-spacing="normal"
         word-spacing="normal"
         ns0:text="$\\frac{n_k}{N + \\alpha}$\n"
         ns0:preamble=""
         style="font-style:normal;font-variant:normal;font-weight:normal;font-stretch:normal;letter-spacing:normal;word-spacing:normal;text-anchor:start;fill:none;stroke:#000000;stroke-width:0.18887597;stroke-linecap:butt;stroke-linejoin:miter;stroke-miterlimit:10.43299961;stroke-opacity:1;stroke-dasharray:none;stroke-dashoffset:0"><path
           d="m 230.01,711.71 0,-0.01 0,-0.01 0,-0.01 -0.01,-0.01 0,-0.01 0,-0.01 -0.01,-0.01 0,-0.01 0,-0.02 -0.01,-0.03 -0.01,-0.02 0,-0.02 0,-0.01 -0.01,-0.01 0,-0.01 0,-0.01 0,-0.01 -0.01,-0.01 0,-0.01 0,-0.01 0,0 0,-0.01 0,-0.01 0,0 0,-0.01 -0.01,0 0,0 0,0 0,0 0,-0.01 c 0,-0.15 0.13,-0.22 0.24,-0.22 0.13,0 0.24,0.09 0.27,0.15 0.04,0.07 0.09,0.29 0.13,0.44 0.03,0.13 0.11,0.45 0.15,0.62 0.04,0.15 0.09,0.31 0.12,0.47 0.08,0.28 0.09,0.34 0.29,0.62 0.2,0.28 0.52,0.64 1.05,0.64 0.4,0 0.41,-0.35 0.41,-0.48 0,-0.42 -0.3,-1.19 -0.41,-1.49 -0.08,-0.19 -0.11,-0.25 -0.11,-0.37 0,-0.37 0.31,-0.6 0.66,-0.6 0.7,0 1.01,0.96 1.01,1.07 0,0.09 -0.09,0.09 -0.12,0.09 -0.09,0 -0.1,-0.05 -0.13,-0.12 -0.16,-0.56 -0.46,-0.84 -0.74,-0.84 -0.14,0 -0.17,0.09 -0.17,0.24 0,0.16 0.03,0.25 0.16,0.56 0.08,0.22 0.37,0.96 0.37,1.34 0,0.68 -0.54,0.8 -0.91,0.8 -0.57,0 -0.96,-0.36 -1.17,-0.63 -0.05,0.47 -0.46,0.63 -0.75,0.63 -0.3,0 -0.46,-0.22 -0.55,-0.38 -0.15,-0.25 -0.25,-0.65 -0.25,-0.69 0,-0.09 0.1,-0.09 0.12,-0.09 0.1,0 0.1,0.02 0.15,0.21 0.11,0.41 0.24,0.75 0.51,0.75 0.18,0 0.23,-0.15 0.23,-0.34 0,-0.13 -0.06,-0.39 -0.11,-0.58 -0.05,-0.18 -0.12,-0.47 -0.15,-0.62 z"
           id="path5016"
           inkscape:connector-curvature="0"
           style="fill:#000000;stroke-width:0" /><path
           d="m 235.92,713.47 0,0.01 0,0 0,0 0,0 0,0.01 0.01,0 0,0 0,0.01 0,0 0,0.01 0,0 0,0 0,0.01 0,0 0,0.01 0.01,0 0,0 0,0.01 0,0 0,0 0,0 0,0.01 0,0 0,0 0,0 0,0.01 0,0 0,0 0,0.01 0,0 0,0 0,0.01 c 0,0.08 -0.07,0.08 -0.15,0.08 l -0.62,-0.05 c -0.08,0 -0.09,-0.01 -0.12,-0.03 -0.02,-0.02 -0.03,-0.08 -0.03,-0.11 0,-0.09 0.08,-0.09 0.15,-0.09 0,0 0.09,0 0.17,-0.01 0.09,-0.01 0.1,-0.02 0.1,-0.06 0,-0.02 0,-0.03 -0.03,-0.12 l -0.68,-2.74 c -0.02,-0.07 -0.02,-0.08 -0.02,-0.11 0,-0.12 0.08,-0.18 0.19,-0.18 0.19,0 0.23,0.18 0.25,0.25 l 0.23,0.92 c 0.13,-0.01 0.75,-0.04 0.75,-0.4 0,-0.03 0,-0.05 -0.02,-0.11 -0.01,-0.07 -0.01,-0.1 -0.01,-0.13 0,-0.35 0.32,-0.53 0.61,-0.53 0.5,0 0.7,0.71 0.7,0.77 0,0.07 -0.08,0.07 -0.1,0.07 -0.09,0 -0.1,-0.03 -0.12,-0.11 -0.05,-0.18 -0.2,-0.56 -0.46,-0.56 -0.19,0 -0.21,0.18 -0.21,0.29 0,0.01 0,0.08 0.02,0.16 0.02,0.08 0.02,0.13 0.02,0.17 0,0.44 -0.55,0.51 -0.87,0.53 0.13,0.09 0.34,0.25 0.42,0.32 0.29,0.23 0.56,0.44 0.84,0.44 0.12,0 0.15,-0.03 0.18,-0.06 -0.01,0 -0.03,-0.01 -0.04,-0.01 -0.23,-0.08 -0.23,-0.29 -0.23,-0.3 0,-0.09 0.06,-0.21 0.22,-0.21 0.1,0 0.31,0.08 0.31,0.36 0,0.24 -0.19,0.39 -0.43,0.39 -0.33,0 -0.62,-0.23 -0.99,-0.52 -0.17,-0.14 -0.33,-0.27 -0.53,-0.35 z"
           id="path5018"
           inkscape:connector-curvature="0"
           style="fill:#000000;stroke-width:0" /><line
           x1="224.63"
           y1="709.62"
           x2="242.98"
           y2="709.62"
           id="line5020"
           style="stroke-width:0.398" /><path
           d="m 230.44,707.68 0.01,0.05 0.01,0.05 0.01,0.02 0.01,0.03 0.01,0.02 0.01,0.02 0.01,0.02 0.02,0.02 0.01,0.02 0.01,0.02 0.02,0.02 0.02,0.02 0.01,0.02 0.02,0.02 0.02,0.02 0.03,0.01 0.02,0.02 0.02,0.01 0.03,0.02 0.03,0.01 0.03,0.01 0.03,0.01 0.04,0.01 0.04,0.01 0.03,0.01 0.05,0 0.04,0.01 0.02,0 0.03,0 0.02,0.01 0.02,0 0.03,0 0.03,0 c 0.03,0 0.13,0.01 0.13,0.15 0,0.04 -0.03,0.1 -0.1,0.1 -0.23,0 -0.49,-0.03 -0.72,-0.03 -0.17,0 -0.58,0.03 -0.74,0.03 -0.04,0 -0.14,0 -0.14,-0.15 0,-0.09 0.09,-0.1 0.15,-0.1 0.33,-0.01 0.45,-0.11 0.45,-0.29 0,-0.05 -0.01,-0.09 -0.03,-0.16 l -0.76,-3.03 -1.77,3.61 c -0.05,0.12 -0.07,0.12 -0.24,0.12 h -0.95 c -0.13,0 -0.22,0 -0.22,-0.15 0,-0.1 0.08,-0.1 0.23,-0.1 0.14,0 0.3,-0.01 0.44,-0.04 l -0.93,-3.72 c -0.06,-0.26 -0.18,-0.47 -0.72,-0.49 -0.05,0 -0.15,-0.01 -0.15,-0.15 0,-0.07 0.05,-0.1 0.1,-0.1 0.23,0 0.49,0.03 0.73,0.03 0.16,0 0.57,-0.03 0.74,-0.03 0.06,0 0.14,0.03 0.14,0.15 0,0.09 -0.09,0.1 -0.17,0.1 -0.43,0.01 -0.43,0.2 -0.43,0.29 0,0.03 0,0.06 0.02,0.18 l 0.89,3.56 2.04,-4.16 c 0.06,-0.11 0.08,-0.12 0.15,-0.12 0.11,0 0.11,0.02 0.15,0.15 z"
           id="path5022"
           inkscape:connector-curvature="0"
           style="fill:#000000;stroke-width:0" /><path
           d="m 234.91,705.26 h 2.13 c 0.09,0 0.26,0 0.26,0.17 0,0.17 -0.16,0.17 -0.26,0.17 h -2.13 v 2.14 c 0,0.09 0,0.25 -0.17,0.25 -0.17,0 -0.17,-0.16 -0.17,-0.25 v -2.14 h -2.14 c -0.09,0 -0.26,0 -0.26,-0.17 0,-0.17 0.16,-0.17 0.26,-0.17 h 2.14 v -2.13 c 0,-0.09 0,-0.26 0.17,-0.26 0.17,0 0.17,0.16 0.17,0.26 z"
           id="path5024"
           inkscape:connector-curvature="0"
           style="fill:#000000;stroke-width:0" /><path
           d="m 241.61,704.67 0.06,0.06 0.06,0.07 0.05,0.06 0.05,0.07 0.05,0.06 0.05,0.07 0.05,0.07 0.04,0.07 0.04,0.07 0.04,0.06 0.04,0.07 0.04,0.07 0.03,0.06 0.03,0.07 0.03,0.06 0.03,0.06 0.03,0.06 0.02,0.06 0.02,0.05 0.02,0.06 0.02,0.05 0.02,0.05 0.02,0.04 0.01,0.04 0.01,0.04 0.01,0.04 0.01,0.03 0.01,0.03 0,0.02 0.01,0.02 0,0.01 0,0.01 c 0,0.09 -0.08,0.09 -0.12,0.09 -0.1,0 -0.1,-0.02 -0.15,-0.17 -0.12,-0.46 -0.35,-0.88 -0.64,-1.26 -0.01,0.1 -0.02,0.57 -0.04,0.63 -0.1,0.69 -0.62,1.14 -1.32,1.14 l -0.01,-0.2 c 0.56,0 0.72,-0.53 0.78,-0.97 0.04,-0.29 0.02,-0.79 0.06,-1.16 h 0 c -0.68,-0.55 -1.28,-0.61 -1.54,-0.61 -0.46,0 -0.72,0.3 -0.72,0.77 0,0.2 0.1,0.96 0.46,1.44 0.32,0.41 0.72,0.53 0.96,0.53 l 0.01,0.2 c -1.02,0 -2.01,-0.96 -2.01,-1.93 0,-0.64 0.47,-1.21 1.28,-1.21 0.64,0 1.22,0.29 1.61,0.59 0.16,-0.51 0.51,-0.59 0.72,-0.59 0.4,0 0.66,0.34 0.66,0.49 0,0.08 -0.09,0.08 -0.12,0.08 -0.09,0 -0.11,-0.03 -0.12,-0.07 -0.1,-0.26 -0.31,-0.3 -0.4,-0.3 -0.1,0 -0.21,0 -0.25,0.85 z"
           id="path5026"
           inkscape:connector-curvature="0"
           style="fill:#000000;stroke-width:0" /></g>    </g>
    <g
       id="g5088"
       transform="translate(18,6)">
      <path
         transform="translate(264.6755,-1.5310553)"
         sodipodi:type="arc"
         style="color:#808080;fill:#ececec;fill-opacity:1;fill-rule:nonzero;stroke:#000000;stroke-width:5;marker:none;visibility:visible;display:inline;overflow:visible;enable-background:accumulate"
         id="path4295-4"
         sodipodi:cx="248.49753"
         sodipodi:cy="260.40259"
         sodipodi:rx="61.619305"
         sodipodi:ry="61.619305"
         d="m 310.11683,260.40259 c 0,34.0314 -27.5879,61.6193 -61.6193,61.6193 -34.0314,0 -61.61931,-27.5879 -61.61931,-61.6193 0,-34.0314 27.58791,-61.61931 61.61931,-61.61931 34.0314,0 61.6193,27.58791 61.6193,61.61931 z" />
      <text
         sodipodi:linespacing="125%"
         id="text5084"
         y="267.75638"
         x="495.17841"
         style="font-size:74.9776001px;font-style:normal;font-weight:normal;line-height:125%;letter-spacing:0px;word-spacing:0px;fill:#000000;fill-opacity:1;stroke:none;font-family:Sans"
         xml:space="preserve"><tspan
           style="font-style:normal;font-variant:normal;font-weight:normal;font-stretch:normal;font-family:FreeSerif;-inkscape-font-specification:FreeSerif"
           y="267.75638"
           x="495.17841"
           id="tspan5086"
           sodipodi:role="line">γ</tspan></text>
    </g>
    <path
       style="fill:none;stroke:#000000;stroke-width:3;stroke-linecap:butt;stroke-linejoin:miter;stroke-miterlimit:4;stroke-opacity:1;stroke-dasharray:none"
       d="m 417.50454,396.85157 73.45592,-85.28939"
       id="path5111"
       inkscape:connector-type="polyline"
       inkscape:connector-curvature="0"
       inkscape:connection-start="#g4957"
       inkscape:connection-start-point="d4"
       inkscape:connection-end="#g5088"
       inkscape:connection-end-point="d4" />
    <path
       style="fill:none;stroke:#000000;stroke-width:3;stroke-linecap:butt;stroke-linejoin:miter;stroke-miterlimit:4;stroke-opacity:1;stroke-dasharray:none"
       d="M 341.82915,393.14421 283.31997,309.99389"
       id="path5113"
       inkscape:connector-type="polyline"
       inkscape:connector-curvature="0"
       inkscape:connection-start="#g4957"
       inkscape:connection-start-point="d4"
       inkscape:connection-end="#g5093"
       inkscape:connection-end-point="d4" />
    <path
       style="fill:none;stroke:#000000;stroke-width:5;stroke-linecap:butt;stroke-linejoin:miter;stroke-miterlimit:4;stroke-opacity:1;stroke-dasharray:none"
       d="m 309.46598,260.74311 160.09821,2.9812"
       id="path5115"
       inkscape:connector-type="polyline"
       inkscape:connector-curvature="0"
       inkscape:connection-start="#g5093"
       inkscape:connection-start-point="d4"
       inkscape:connection-end="#g5088"
       inkscape:connection-end-point="d4" />
  </g>
</svg>
